<svg width="270" height="72" viewBox="0 0 270 72" fill="none" xmlns="http://www.w3.org/2000/svg">
<path d="M1.56952 26.088C1.47352 26.112 1.35352 26.004 1.20952 25.764C1.04152 25.548 0.957516 25.248 0.957516 24.864C0.957516 24.744 0.969516 24.624 0.993516 24.504C0.993516 24.408 1.00552 24.312 1.02952 24.216C1.05352 24.096 1.22152 23.616 1.53352 22.776C1.84552 21.912 2.24152 20.844 2.72152 19.572C3.20152 18.276 3.69352 16.872 4.19752 15.36C4.72552 13.848 5.21752 12.36 5.67352 10.896C6.15352 9.408 6.53752 8.064 6.82552 6.864C7.11352 5.664 7.25752 4.74 7.25752 4.092C7.25752 3.852 7.24552 3.684 7.22152 3.588C7.19752 3.468 7.17352 3.36 7.14952 3.264C7.14952 3.168 7.14952 3.084 7.14952 3.012C7.14952 2.676 7.22152 2.436 7.36552 2.292C7.53352 2.148 7.73752 2.076 7.97752 2.076C8.40952 2.076 8.88952 2.268 9.41752 2.652C9.96952 3.036 10.4375 3.552 10.8215 4.2C11.2055 4.848 11.3495 5.568 11.2535 6.36C11.2055 6.768 11.0735 7.272 10.8575 7.872C10.6415 8.448 10.4015 9.048 10.1375 9.672C9.87352 10.296 9.62152 10.86 9.38152 11.364C9.16552 11.844 9.02152 12.204 8.94952 12.444C8.87752 12.66 8.92552 12.672 9.09352 12.48C9.40552 12.144 9.86152 11.712 10.4615 11.184C11.0855 10.632 11.7815 10.08 12.5495 9.528C13.3175 8.976 14.0975 8.484 14.8895 8.052C15.6815 7.62 16.4135 7.332 17.0855 7.188C17.2055 7.164 17.3015 7.152 17.3735 7.152C17.4695 7.128 17.5655 7.116 17.6615 7.116C18.6455 7.116 19.3775 7.668 19.8575 8.772C20.3375 9.852 20.5775 11.268 20.5775 13.02C20.5775 13.668 20.5415 14.352 20.4695 15.072C20.3975 15.768 20.3015 16.5 20.1815 17.268C20.1095 17.724 20.0375 18.288 19.9655 18.96C19.9175 19.632 19.8935 20.244 19.8935 20.796C19.8935 21.276 19.9175 21.66 19.9655 21.948C20.0375 22.212 20.1455 22.26 20.2895 22.092C20.9855 21.348 21.6815 20.496 22.3775 19.536C23.0975 18.552 23.7935 17.568 24.4655 16.584C25.1615 15.576 25.8575 14.64 26.5535 13.776C27.2495 12.888 27.9335 12.156 28.6055 11.58C29.3015 10.98 29.9975 10.608 30.6935 10.464C30.7655 10.44 30.8375 10.428 30.9095 10.428C30.9815 10.428 31.0535 10.428 31.1255 10.428C31.6775 10.428 32.0855 10.656 32.3495 11.112C32.6375 11.568 32.8295 12.18 32.9255 12.948C33.0215 13.692 33.0695 14.532 33.0695 15.468C33.0695 16.284 33.0455 17.136 32.9975 18.024C32.9735 18.888 32.9615 19.716 32.9615 20.508C32.9615 21.252 32.9855 21.936 33.0335 22.56C33.1055 23.16 33.2255 23.664 33.3935 24.072C33.6095 24.576 33.7175 24.96 33.7175 25.224C33.7175 25.416 33.6455 25.512 33.5015 25.512C33.2615 25.512 32.8895 25.26 32.3855 24.756C31.6655 24.06 31.1975 23.16 30.9815 22.056C30.7655 20.952 30.6575 19.836 30.6575 18.708C30.6575 17.82 30.6815 16.98 30.7295 16.188C30.8015 15.372 30.8375 14.688 30.8375 14.136C30.8375 13.704 30.8015 13.368 30.7295 13.128C30.6575 12.864 30.5255 12.756 30.3335 12.804C29.7815 12.9 29.2055 13.236 28.6055 13.812C28.0055 14.364 27.3815 15.06 26.7335 15.9C26.1095 16.74 25.4495 17.628 24.7535 18.564C24.0815 19.476 23.3975 20.34 22.7015 21.156C22.0055 21.972 21.2975 22.644 20.5775 23.172C19.8575 23.7 19.1375 23.976 18.4175 24C17.4575 24.024 16.8095 23.808 16.4735 23.352C16.1375 22.872 15.9695 22.26 15.9695 21.516C15.9695 20.748 16.0655 19.932 16.2575 19.068C16.4735 18.18 16.6535 17.352 16.7975 16.584C16.9415 15.792 17.0375 15.072 17.0855 14.424C17.1575 13.752 17.1935 13.152 17.1935 12.624C17.1935 11.28 17.0375 10.32 16.7255 9.744C16.4135 9.168 16.0895 8.94 15.7535 9.06C15.0335 9.276 14.1815 9.756 13.1975 10.5C12.2135 11.244 11.1695 12.216 10.0655 13.416C8.96152 14.592 7.88152 15.96 6.82552 17.52C5.79352 19.056 4.88152 20.724 4.08952 22.524C3.63352 23.532 3.18952 24.36 2.75752 25.008C2.32552 25.68 1.92952 26.04 1.56952 26.088ZM51.2689 25.368C50.1889 25.368 49.0249 25.236 47.7769 24.972C45.4009 24.468 43.4449 23.712 41.9089 22.704C40.3729 21.696 39.2329 20.544 38.4889 19.248C37.7449 17.952 37.3729 16.62 37.3729 15.252C37.3729 13.692 37.8289 12.168 38.7409 10.68C39.6529 9.192 40.9969 7.896 42.7729 6.792C44.5489 5.664 46.7089 4.884 49.2529 4.452C50.5489 4.236 51.9289 4.128 53.3929 4.128C54.4969 4.128 55.5529 4.2 56.5609 4.344C57.5689 4.464 58.4329 4.644 59.1529 4.884C59.8969 5.124 60.4009 5.436 60.6649 5.82C60.7849 5.964 60.8449 6.168 60.8449 6.432C60.8449 6.768 60.7609 7.056 60.5929 7.296C61.5049 7.632 62.3569 8.124 63.1489 8.772C63.9409 9.396 64.5649 10.14 65.0209 11.004C65.5009 11.868 65.7409 12.828 65.7409 13.884C65.7409 14.892 65.5009 15.912 65.0209 16.944C64.2769 18.504 63.2209 19.92 61.8529 21.192C60.5089 22.464 58.9369 23.472 57.1369 24.216C55.3369 24.984 53.3809 25.368 51.2689 25.368ZM50.3329 24.18C52.1569 24.18 53.8609 23.832 55.4449 23.136C57.0289 22.416 58.4209 21.468 59.6209 20.292C60.8209 19.092 61.7449 17.784 62.3929 16.368C62.6569 15.816 62.8369 15.288 62.9329 14.784C63.0529 14.28 63.1129 13.8 63.1129 13.344C63.1129 12.072 62.7409 11.004 61.9969 10.14C61.2769 9.276 60.3769 8.628 59.2969 8.196C58.2409 7.74 57.1849 7.512 56.1289 7.512C55.1209 7.512 54.2689 7.704 53.5729 8.088C53.3329 8.208 53.1289 8.268 52.9609 8.268C52.6729 8.268 52.5289 8.172 52.5289 7.98C52.5289 7.908 52.7209 7.836 53.1049 7.764C53.5129 7.692 54.0169 7.62 54.6169 7.548C55.2169 7.452 55.8289 7.368 56.4529 7.296C57.1009 7.224 57.6529 7.164 58.1089 7.116C58.5889 7.044 58.9009 6.984 59.0449 6.936C58.7329 6.912 58.4329 6.888 58.1449 6.864C57.8569 6.84 57.8089 6.828 58.0009 6.828H58.0369C58.7569 6.828 59.1169 6.852 59.1169 6.9C59.1169 6.9 59.0929 6.912 59.0449 6.936C59.2849 6.96 59.4649 6.984 59.5849 7.008V6.792C59.5849 6.216 59.1529 5.784 58.2889 5.496C57.4489 5.208 56.4289 5.064 55.2289 5.064C54.4849 5.064 53.6809 5.124 52.8169 5.244C51.9769 5.34 51.1369 5.508 50.2969 5.748C48.0409 6.372 46.2169 7.212 44.8249 8.268C43.4329 9.3 42.4249 10.452 41.8009 11.724C41.1769 12.972 40.8649 14.232 40.8649 15.504C40.8649 16.776 41.1409 18 41.6929 19.176C42.2449 20.328 43.0129 21.324 43.9969 22.164C45.0049 22.98 46.1569 23.544 47.4529 23.856C48.4369 24.072 49.3969 24.18 50.3329 24.18ZM68.5157 25.656C68.3477 25.656 68.1797 25.452 68.0117 25.044C67.8437 24.636 67.7357 24.024 67.6877 23.208C67.6637 22.992 67.6517 22.776 67.6517 22.56C67.6517 22.344 67.6517 22.116 67.6517 21.876C67.6517 21.108 67.6757 20.364 67.7237 19.644C67.7717 18.924 67.8317 18.312 67.9037 17.808C67.9997 17.28 68.0837 16.968 68.1557 16.872C67.6277 16.752 67.1957 16.608 66.8597 16.44C66.5237 16.272 66.3557 16.104 66.3557 15.936C66.3557 15.72 66.6437 15.54 67.2197 15.396C67.3637 15.396 67.5317 15.384 67.7237 15.36C67.9397 15.336 68.1797 15.324 68.4437 15.324C68.7077 14.388 69.0437 13.332 69.4517 12.156C69.8837 10.98 70.3277 9.804 70.7837 8.628C71.2397 7.452 71.6357 6.372 71.9717 5.388C72.3077 4.404 72.5117 3.648 72.5837 3.12C72.6077 2.88 72.7037 2.712 72.8717 2.616C73.0637 2.496 73.2797 2.436 73.5197 2.436C73.9037 2.436 74.3117 2.544 74.7437 2.76C75.1997 2.976 75.5837 3.288 75.8957 3.696C76.2317 4.08 76.3997 4.536 76.3997 5.064C76.3997 5.232 76.3757 5.424 76.3277 5.64C76.3037 5.832 76.2317 6.024 76.1117 6.216C75.7517 6.936 75.3317 7.644 74.8517 8.34C74.3957 9.036 73.8797 9.9 73.3037 10.932C72.7277 11.964 72.0677 13.356 71.3237 15.108H87.3077C87.5477 13.476 87.7517 11.832 87.9197 10.176C88.0877 8.52 88.4357 6.648 88.9637 4.56C88.9637 4.512 89.1557 4.452 89.5397 4.38C89.9477 4.308 90.3557 4.272 90.7637 4.272C91.1237 4.272 91.4237 4.332 91.6637 4.452C91.9277 4.548 92.0117 4.752 91.9157 5.064C91.6997 5.736 91.4477 6.576 91.1597 7.584C90.8717 8.568 90.5717 9.588 90.2597 10.644C89.9717 11.676 89.7197 12.6 89.5037 13.416C89.2877 14.232 89.1437 14.808 89.0717 15.144C89.4077 15.144 89.8517 15.144 90.4037 15.144C90.9557 15.144 91.3277 15.24 91.5197 15.432C91.6877 15.6 91.6517 15.732 91.4117 15.828C91.1717 15.924 90.8477 16.02 90.4397 16.116C90.0557 16.188 89.6717 16.272 89.2877 16.368C88.9277 16.464 88.7117 16.584 88.6397 16.728C88.3757 18.024 88.1597 19.224 87.9917 20.328C87.8237 21.432 87.6677 22.344 87.5237 23.064C87.4037 23.76 87.2357 24.156 87.0197 24.252C86.9717 24.276 86.9117 24.288 86.8397 24.288C86.6237 24.288 86.5157 24.036 86.5157 23.532C86.5157 23.196 86.5517 22.764 86.6237 22.236C86.6957 21.684 86.7437 21.132 86.7677 20.58C86.8157 19.956 86.8517 19.452 86.8757 19.068C86.9237 18.66 86.9717 18.24 87.0197 17.808C87.0677 17.376 87.1037 16.788 87.1277 16.044C84.7517 16.212 82.4717 16.32 80.2877 16.368C78.1037 16.392 76.1837 16.44 74.5277 16.512C72.8717 16.56 71.6237 16.704 70.7837 16.944C70.2557 18.576 69.7997 20.076 69.4157 21.444C69.0557 22.788 68.8517 23.952 68.8037 24.936C68.8037 25.416 68.7077 25.656 68.5157 25.656ZM96.8649 25.656C96.6969 25.656 96.5049 25.536 96.2889 25.296C96.0969 25.08 95.9169 24.672 95.7489 24.072C94.7409 24.144 93.9009 24.18 93.2289 24.18C93.0129 24.18 92.8209 24.168 92.6529 24.144C92.5089 24.144 92.4009 24.132 92.3289 24.108C92.2329 24.084 92.0769 24.036 91.8609 23.964C91.6689 23.892 91.4889 23.796 91.3209 23.676C91.1769 23.556 91.1289 23.436 91.1769 23.316C91.3689 23.028 91.5969 22.764 91.8609 22.524C92.1489 22.284 92.7129 22.164 93.5529 22.164C93.8889 22.164 94.1169 22.176 94.2369 22.2C94.3809 22.224 94.4529 22.26 94.4529 22.308C94.4529 22.38 94.3569 22.452 94.1649 22.524C93.9729 22.596 93.8769 22.656 93.8769 22.704C93.8769 22.728 93.9849 22.74 94.2009 22.74C94.3209 22.74 94.4889 22.74 94.7049 22.74C94.9209 22.716 95.1609 22.692 95.4249 22.668C95.4249 22.572 95.4129 22.476 95.3889 22.38C95.3889 22.26 95.3889 22.152 95.3889 22.056C95.3889 21.024 95.5329 19.776 95.8209 18.312C96.1329 16.848 96.5289 15.324 97.0089 13.74C97.5129 12.132 98.0409 10.608 98.5929 9.168C99.1689 7.728 99.7089 6.504 100.213 5.496C99.1809 5.664 98.2209 5.82 97.3329 5.964C96.4449 6.108 95.7249 6.228 95.1729 6.324C94.6209 6.396 94.3089 6.42 94.2369 6.396C93.9729 6.252 93.8409 5.94 93.8409 5.46C93.8409 4.98 93.9729 4.5 94.2369 4.02C94.5249 3.54 94.8729 3.3 95.2809 3.3C95.5929 3.3 95.8449 3.42 96.0369 3.66C96.2289 3.9 96.5409 4.02 96.9729 4.02C97.0209 4.02 97.0809 4.02 97.1529 4.02C97.2249 3.996 97.3089 3.972 97.4049 3.948C97.6689 3.876 98.1849 3.816 98.9529 3.768C99.7449 3.696 100.645 3.648 101.653 3.624C102.013 3.384 102.397 3.228 102.805 3.156C103.213 3.06 103.609 3.012 103.993 3.012C104.401 3.012 104.749 3.06 105.037 3.156C105.349 3.228 105.553 3.336 105.649 3.48C106.057 3.48 106.429 3.48 106.765 3.48C107.125 3.456 107.461 3.444 107.773 3.444C108.325 3.444 108.781 3.456 109.141 3.48C109.501 3.48 109.717 3.504 109.789 3.552C109.981 3.624 110.113 3.708 110.185 3.804C110.257 3.9 110.293 3.984 110.293 4.056C110.293 4.248 110.185 4.404 109.969 4.524C109.753 4.62 109.621 4.62 109.573 4.524C109.573 4.404 109.321 4.344 108.817 4.344C108.409 4.344 107.869 4.38 107.197 4.452C106.525 4.524 105.769 4.62 104.929 4.74C104.137 5.916 103.333 7.272 102.517 8.808C101.725 10.32 100.981 11.904 100.285 13.56C99.5889 15.192 98.9769 16.788 98.4489 18.348C97.9449 19.908 97.5849 21.324 97.3689 22.596C98.2809 22.548 99.2289 22.512 100.213 22.488C101.221 22.464 102.133 22.452 102.949 22.452C103.693 22.452 104.281 22.476 104.713 22.524C105.169 22.548 105.337 22.608 105.217 22.704C104.737 23.112 104.245 23.4 103.741 23.568C103.261 23.712 102.637 23.796 101.869 23.82C101.101 23.844 100.045 23.88 98.7009 23.928C98.4609 23.928 98.2089 23.94 97.9449 23.964C97.7049 23.964 97.4649 23.976 97.2249 24C97.2009 24.456 97.2009 24.9 97.2249 25.332C97.2249 25.548 97.1049 25.656 96.8649 25.656ZM118.8 26.268C118.608 26.268 118.38 26.1 118.116 25.764C117.876 25.428 117.66 24.78 117.468 23.82C117.444 23.7 117.42 23.568 117.396 23.424C117.396 23.28 117.396 23.124 117.396 22.956C117.396 21.996 117.564 20.856 117.9 19.536C118.26 18.216 118.716 16.86 119.268 15.468C119.82 14.052 120.384 12.732 120.96 11.508C121.56 10.26 122.112 9.24 122.616 8.448C122.976 7.872 123.492 7.488 124.164 7.296C124.836 7.104 125.472 7.008 126.072 7.008C125.016 6.744 123.936 6.528 122.832 6.36C121.752 6.192 120.66 6.108 119.556 6.108C118.116 6.108 116.676 6.3 115.236 6.684C113.796 7.044 112.404 7.704 111.06 8.664C110.772 8.856 110.628 9.06 110.628 9.276C110.628 9.468 110.712 9.66 110.88 9.852C111.048 10.02 111.132 10.176 111.132 10.32C111.132 10.44 111.024 10.548 110.808 10.644C110.52 10.764 110.28 10.824 110.088 10.824C109.584 10.824 109.152 10.632 108.792 10.248C108.456 9.864 108.156 9.456 107.892 9.024C107.604 8.52 107.46 8.04 107.46 7.584C107.46 6.984 107.676 6.456 108.108 6C108.54 5.52 109.104 5.112 109.8 4.776C110.496 4.44 111.228 4.176 111.996 3.984C112.788 3.768 113.52 3.612 114.192 3.516C114.816 3.42 115.428 3.36 116.028 3.336C116.628 3.288 117.228 3.264 117.828 3.264C119.796 3.264 121.668 3.432 123.444 3.768C125.244 4.104 126.912 4.524 128.448 5.028C130.008 5.508 131.412 5.988 132.66 6.468C133.908 6.948 134.976 7.344 135.864 7.656C136.752 7.968 137.424 8.1 137.88 8.052C138.24 8.052 138.492 7.968 138.636 7.8C138.804 7.608 138.924 7.44 138.996 7.296C139.092 7.128 139.212 7.08 139.356 7.152C139.644 7.32 139.788 7.476 139.788 7.62C139.788 7.788 139.668 7.956 139.428 8.124C139.212 8.268 139.008 8.4 138.816 8.52C138.12 8.976 137.208 9.204 136.08 9.204C134.976 9.204 133.692 9.024 132.228 8.664C130.788 8.304 129.24 7.896 127.584 7.44L127.548 7.728C126.78 8.712 125.976 9.84 125.136 11.112C124.32 12.36 123.54 13.68 122.796 15.072C122.052 16.464 121.392 17.844 120.816 19.212C120.24 20.556 119.796 21.816 119.484 22.992C119.172 24.168 119.064 25.164 119.16 25.98C119.16 26.172 119.04 26.268 118.8 26.268ZM165.896 25.728C165.008 25.608 164.012 25.272 162.908 24.72C161.828 24.168 160.736 23.52 159.632 22.776C158.528 22.032 157.496 21.3 156.536 20.58C155.576 19.836 154.784 19.2 154.16 18.672C153.536 18.144 153.176 17.832 153.08 17.736C152.696 17.328 152.348 16.92 152.036 16.512C151.724 16.08 151.568 15.66 151.568 15.252C151.568 14.988 151.64 14.736 151.784 14.496C151.904 14.304 152.3 13.872 152.972 13.2C153.668 12.528 154.556 11.736 155.636 10.824C156.716 9.888 157.904 8.928 159.2 7.944C160.496 6.96 161.816 6.036 163.16 5.172C164.504 4.308 165.788 3.612 167.012 3.084C168.26 2.532 169.34 2.256 170.252 2.256C170.732 2.256 171.152 2.46 171.512 2.868C171.896 3.276 172.196 3.756 172.412 4.308C172.652 4.836 172.772 5.304 172.772 5.712C172.772 6.216 172.604 6.468 172.268 6.468C170.012 6.468 167.9 6.852 165.932 7.62C163.964 8.364 162.032 9.408 160.136 10.752C158.264 12.072 156.284 13.596 154.196 15.324C154.676 16.02 155.6 17.004 156.968 18.276C158.336 19.548 160.184 20.952 162.512 22.488C163.928 23.4 164.924 24.096 165.5 24.576C166.1 25.08 166.4 25.416 166.4 25.584C166.4 25.728 166.232 25.776 165.896 25.728ZM148.472 24.504C148.544 24.6 148.484 24.648 148.292 24.648C148.124 24.672 147.872 24.504 147.536 24.144C147.2 23.808 146.816 23.184 146.384 22.272C146.264 22.008 146.18 21.708 146.132 21.372C146.084 21.036 146.06 20.676 146.06 20.292C146.06 19.26 146.192 18.096 146.456 16.8C146.744 15.48 147.056 14.16 147.392 12.84C147.752 11.52 148.064 10.32 148.328 9.24C148.616 8.16 148.76 7.332 148.76 6.756C148.76 6.42 148.712 6.204 148.616 6.108C148.4 5.82 148.292 5.556 148.292 5.316C148.292 4.98 148.496 4.728 148.904 4.56C149.336 4.392 149.828 4.308 150.38 4.308C150.836 4.308 151.292 4.368 151.748 4.488C152.204 4.584 152.588 4.74 152.9 4.956C153.068 5.1 153.152 5.34 153.152 5.676C153.152 6.204 152.972 6.948 152.612 7.908C152.276 8.868 151.844 9.96 151.316 11.184C150.812 12.384 150.296 13.644 149.768 14.964C149.24 16.26 148.796 17.532 148.436 18.78C148.1 20.028 147.932 21.168 147.932 22.2C147.932 23.112 148.112 23.88 148.472 24.504ZM183.339 26.628C183.123 26.628 182.871 26.58 182.583 26.484C182.055 26.316 181.635 26.148 181.323 25.98C181.011 25.812 180.783 25.512 180.639 25.08C180.495 24.672 180.387 24 180.315 23.064C180.291 22.776 180.327 22.248 180.423 21.48C180.543 20.688 180.711 19.776 180.927 18.744C181.143 17.712 181.395 16.668 181.683 15.612C181.995 14.556 182.331 13.608 182.691 12.768C182.331 13.08 181.887 13.596 181.359 14.316C180.831 15.036 180.231 15.864 179.559 16.8C178.911 17.736 178.191 18.708 177.399 19.716C176.631 20.7 175.803 21.624 174.915 22.488C174.579 22.824 174.147 23.136 173.619 23.424C173.115 23.712 172.599 23.916 172.071 24.036C171.543 24.18 171.075 24.228 170.667 24.18C170.571 24.18 170.367 24.12 170.055 24C169.767 23.856 169.491 23.604 169.227 23.244C168.963 22.884 168.831 22.344 168.831 21.624C168.831 21.144 168.915 20.364 169.083 19.284C169.251 18.18 169.503 16.908 169.839 15.468C170.175 14.028 170.595 12.552 171.099 11.04C171.627 9.504 172.239 8.064 172.935 6.72C173.631 5.376 174.411 4.26 175.275 3.372C175.539 3.108 175.995 2.868 176.643 2.652C177.315 2.436 177.891 2.328 178.371 2.328C178.899 2.328 179.163 2.46 179.163 2.724C179.163 2.796 179.103 2.928 178.983 3.12C177.855 4.776 176.847 6.444 175.959 8.124C175.095 9.804 174.363 11.424 173.763 12.984C173.163 14.544 172.707 15.984 172.395 17.304C172.083 18.6 171.927 19.68 171.927 20.544C171.927 21.216 172.023 21.732 172.215 22.092C172.431 22.452 172.743 22.596 173.151 22.524C173.559 22.452 174.099 22.056 174.771 21.336C175.467 20.616 176.247 19.704 177.111 18.6C177.975 17.496 178.863 16.308 179.775 15.036C180.711 13.74 181.611 12.492 182.475 11.292C183.339 10.092 184.119 9.048 184.815 8.16C185.511 7.248 186.051 6.624 186.435 6.288C186.627 6.12 186.783 6.012 186.903 5.964C187.047 5.892 187.167 5.856 187.263 5.856C187.527 5.856 187.659 6.036 187.659 6.396C187.659 6.588 187.623 6.756 187.551 6.9C187.335 7.308 187.047 7.932 186.687 8.772C186.327 9.612 185.943 10.596 185.535 11.724C185.151 12.828 184.779 14.004 184.419 15.252C184.083 16.476 183.795 17.712 183.555 18.96C183.339 20.184 183.231 21.336 183.231 22.416C183.231 23.496 183.375 24.432 183.663 25.224C183.807 25.584 183.879 25.884 183.879 26.124C183.879 26.46 183.699 26.628 183.339 26.628ZM187.581 26.088C187.485 26.112 187.365 26.004 187.221 25.764C187.053 25.548 186.969 25.248 186.969 24.864C186.969 24.744 186.981 24.624 187.005 24.504C187.005 24.408 187.017 24.312 187.041 24.216C187.065 24.096 187.233 23.616 187.545 22.776C187.857 21.912 188.253 20.844 188.733 19.572C189.213 18.276 189.705 16.872 190.209 15.36C190.737 13.848 191.229 12.36 191.685 10.896C192.165 9.408 192.549 8.064 192.837 6.864C193.125 5.664 193.269 4.74 193.269 4.092C193.269 3.852 193.257 3.684 193.233 3.588C193.209 3.468 193.185 3.36 193.161 3.264C193.161 3.168 193.161 3.084 193.161 3.012C193.161 2.676 193.233 2.436 193.377 2.292C193.545 2.148 193.749 2.076 193.989 2.076C194.421 2.076 194.901 2.268 195.429 2.652C195.981 3.036 196.449 3.552 196.833 4.2C197.217 4.848 197.361 5.568 197.265 6.36C197.217 6.768 197.085 7.272 196.869 7.872C196.653 8.448 196.413 9.048 196.149 9.672C195.885 10.296 195.633 10.86 195.393 11.364C195.177 11.844 195.033 12.204 194.961 12.444C194.889 12.66 194.937 12.672 195.105 12.48C195.417 12.144 195.873 11.712 196.473 11.184C197.097 10.632 197.793 10.08 198.561 9.528C199.329 8.976 200.109 8.484 200.901 8.052C201.693 7.62 202.425 7.332 203.097 7.188C203.217 7.164 203.313 7.152 203.385 7.152C203.481 7.128 203.577 7.116 203.673 7.116C204.657 7.116 205.389 7.668 205.869 8.772C206.349 9.852 206.589 11.268 206.589 13.02C206.589 13.668 206.553 14.352 206.481 15.072C206.409 15.768 206.313 16.5 206.193 17.268C206.121 17.724 206.049 18.288 205.977 18.96C205.929 19.632 205.905 20.244 205.905 20.796C205.905 21.276 205.929 21.66 205.977 21.948C206.049 22.212 206.157 22.26 206.301 22.092C206.997 21.348 207.693 20.496 208.389 19.536C209.109 18.552 209.805 17.568 210.477 16.584C211.173 15.576 211.869 14.64 212.565 13.776C213.261 12.888 213.945 12.156 214.617 11.58C215.313 10.98 216.009 10.608 216.705 10.464C216.777 10.44 216.849 10.428 216.921 10.428C216.993 10.428 217.065 10.428 217.137 10.428C217.689 10.428 218.097 10.656 218.361 11.112C218.649 11.568 218.841 12.18 218.937 12.948C219.033 13.692 219.081 14.532 219.081 15.468C219.081 16.284 219.057 17.136 219.009 18.024C218.985 18.888 218.973 19.716 218.973 20.508C218.973 21.252 218.997 21.936 219.045 22.56C219.117 23.16 219.237 23.664 219.405 24.072C219.621 24.576 219.729 24.96 219.729 25.224C219.729 25.416 219.657 25.512 219.513 25.512C219.273 25.512 218.901 25.26 218.397 24.756C217.677 24.06 217.209 23.16 216.993 22.056C216.777 20.952 216.669 19.836 216.669 18.708C216.669 17.82 216.693 16.98 216.741 16.188C216.813 15.372 216.849 14.688 216.849 14.136C216.849 13.704 216.813 13.368 216.741 13.128C216.669 12.864 216.537 12.756 216.345 12.804C215.793 12.9 215.217 13.236 214.617 13.812C214.017 14.364 213.393 15.06 212.745 15.9C212.121 16.74 211.461 17.628 210.765 18.564C210.093 19.476 209.409 20.34 208.713 21.156C208.017 21.972 207.309 22.644 206.589 23.172C205.869 23.7 205.149 23.976 204.429 24C203.469 24.024 202.821 23.808 202.485 23.352C202.149 22.872 201.981 22.26 201.981 21.516C201.981 20.748 202.077 19.932 202.269 19.068C202.485 18.18 202.665 17.352 202.809 16.584C202.953 15.792 203.049 15.072 203.097 14.424C203.169 13.752 203.205 13.152 203.205 12.624C203.205 11.28 203.049 10.32 202.737 9.744C202.425 9.168 202.101 8.94 201.765 9.06C201.045 9.276 200.193 9.756 199.209 10.5C198.225 11.244 197.181 12.216 196.077 13.416C194.973 14.592 193.893 15.96 192.837 17.52C191.805 19.056 190.893 20.724 190.101 22.524C189.645 23.532 189.201 24.36 188.769 25.008C188.337 25.68 187.941 26.04 187.581 26.088ZM222.557 25.8C222.389 25.8 222.233 25.728 222.089 25.584C221.921 25.44 221.837 25.236 221.837 24.972C221.837 24.78 221.897 24.54 222.017 24.252C222.137 23.964 222.353 23.652 222.665 23.316C223.217 22.092 223.733 21.096 224.213 20.328C224.717 19.56 225.281 18.732 225.905 17.844C225.593 17.796 225.365 17.688 225.221 17.52C225.077 17.328 225.005 17.112 225.005 16.872C225.005 16.488 225.113 16.128 225.329 15.792C225.569 15.432 225.785 15.252 225.977 15.252C226.265 15.252 226.565 15.216 226.877 15.144C227.213 15.072 227.549 15.036 227.885 15.036C228.749 13.788 229.445 12.756 229.973 11.94C230.525 11.124 230.969 10.464 231.305 9.96C231.641 9.456 231.929 9.036 232.169 8.7C232.433 8.364 232.697 8.052 232.961 7.764C233.225 7.452 233.549 7.092 233.933 6.684C234.317 6.276 234.821 5.76 235.445 5.136C235.133 4.488 234.977 3.852 234.977 3.228C234.977 2.364 235.229 1.656 235.733 1.104C236.237 0.551999 236.765 0.275999 237.317 0.275999C237.605 0.275999 237.869 0.359999 238.109 0.528C238.373 0.671999 238.589 0.935999 238.757 1.32C239.429 2.856 239.897 4.812 240.161 7.188C240.449 9.564 240.641 12.084 240.737 14.748C242.537 14.892 243.785 15.216 244.481 15.72C244.169 15.816 243.689 15.924 243.041 16.044C242.393 16.14 241.625 16.248 240.737 16.368C240.737 17.328 240.749 18.3 240.773 19.284C240.797 20.268 240.809 21.24 240.809 22.2C240.809 23.544 240.701 24.48 240.485 25.008C240.293 25.536 240.101 25.8 239.909 25.8C239.645 25.8 239.513 25.56 239.513 25.08C239.513 23.472 239.441 21.972 239.297 20.58C239.153 19.164 238.949 17.844 238.685 16.62C237.509 16.74 236.261 16.872 234.941 17.016C233.645 17.136 232.349 17.256 231.053 17.376C229.757 17.496 228.557 17.616 227.453 17.736C226.685 18.936 225.917 20.196 225.149 21.516C224.405 22.836 223.685 24.18 222.989 25.548C222.917 25.716 222.773 25.8 222.557 25.8ZM229.397 14.892C230.813 14.772 232.301 14.7 233.861 14.676C235.421 14.628 236.897 14.604 238.289 14.604C237.881 12.9 237.437 11.4 236.957 10.104C236.501 8.784 236.141 7.656 235.877 6.72C235.253 7.344 234.353 8.364 233.177 9.78C232.025 11.196 230.765 12.9 229.397 14.892ZM265.834 25.44C265.522 25.44 265.006 25.32 264.286 25.08C263.566 24.864 262.798 24.564 261.982 24.18C261.166 23.82 260.446 23.436 259.822 23.028C259.318 22.692 258.718 22.272 258.022 21.768C257.326 21.24 256.63 20.712 255.934 20.184C255.262 19.632 254.674 19.152 254.17 18.744C253.666 18.312 253.354 18.036 253.234 17.916C253.066 17.748 252.982 17.532 252.982 17.268C252.982 17.076 253.018 16.884 253.09 16.692C253.186 16.476 253.282 16.272 253.378 16.08C253.306 16.08 253.234 16.068 253.162 16.044C253.09 15.996 253.054 15.972 253.054 15.972C252.622 15.828 252.406 15.696 252.406 15.576C252.406 15.312 253.078 15.18 254.422 15.18H255.142C255.262 15.18 255.394 15.18 255.538 15.18C255.682 15.156 255.826 15.144 255.97 15.144C257.746 15.144 259.318 14.868 260.686 14.316C262.078 13.764 263.206 13.092 264.07 12.3C264.934 11.508 265.474 10.764 265.69 10.068C265.762 9.804 265.798 9.576 265.798 9.384C265.798 8.544 265.354 7.86 264.466 7.332C263.602 6.804 262.474 6.408 261.082 6.144C259.69 5.88 258.226 5.748 256.69 5.748C255.322 5.748 253.978 5.844 252.658 6.036C251.338 6.228 250.186 6.528 249.202 6.936C248.89 7.056 248.602 7.116 248.338 7.116C247.954 7.116 247.762 7.032 247.762 6.864C247.762 6.648 248.11 6.36 248.806 6C250.198 5.304 251.626 4.812 253.09 4.524C254.578 4.212 256.042 4.056 257.482 4.056C259.066 4.056 260.566 4.212 261.982 4.524C263.398 4.836 264.658 5.268 265.762 5.82C266.866 6.348 267.73 6.948 268.354 7.62C268.978 8.268 269.29 8.94 269.29 9.636C269.29 10.02 269.182 10.416 268.966 10.824C268.726 11.256 268.258 11.712 267.562 12.192C266.89 12.672 266.086 13.152 265.15 13.632C264.214 14.088 263.194 14.508 262.09 14.892C261.01 15.252 259.93 15.528 258.85 15.72C258.418 15.792 257.962 15.864 257.482 15.936C257.026 16.008 256.57 16.044 256.114 16.044C256.33 16.332 256.714 16.824 257.266 17.52C257.818 18.216 258.514 18.996 259.354 19.86C260.194 20.724 261.142 21.588 262.198 22.452C262.486 22.668 262.87 22.944 263.35 23.28C263.854 23.616 264.346 23.952 264.826 24.288C265.306 24.624 265.654 24.9 265.87 25.116C266.11 25.332 266.098 25.44 265.834 25.44ZM246.07 27.132C245.878 27.132 245.65 26.964 245.386 26.628C245.122 26.316 244.894 25.692 244.702 24.756C244.678 24.612 244.654 24.456 244.63 24.288C244.63 24.144 244.63 23.988 244.63 23.82C244.63 23.004 244.738 22.044 244.954 20.94C245.194 19.812 245.506 18.636 245.89 17.412C246.274 16.164 246.694 14.94 247.15 13.74C247.606 12.54 248.074 11.436 248.554 10.428C249.034 9.42 249.478 8.604 249.886 7.98C250.222 7.428 250.702 7.056 251.326 6.864C251.974 6.648 252.586 6.54 253.162 6.54C253.714 6.54 254.17 6.612 254.53 6.756C254.89 6.9 254.986 7.068 254.818 7.26C254.026 8.244 253.21 9.42 252.37 10.788C251.53 12.132 250.738 13.572 249.994 15.108C249.25 16.62 248.59 18.12 248.014 19.608C247.438 21.096 247.006 22.464 246.718 23.712C246.43 24.96 246.334 25.992 246.43 26.808C246.43 27.024 246.31 27.132 246.07 27.132Z" fill="url(#paint0_linear_1_2)"/>
<path d="M23.4759 68.792C22.2759 68.792 21.2439 68.768 20.3799 68.72C19.5159 68.672 18.9639 68.624 18.7239 68.576C17.4759 68.312 16.5879 68.06 16.0599 67.82C15.5559 67.556 15.3039 67.34 15.3039 67.172C15.3039 67.004 15.4599 66.872 15.7719 66.776C16.0839 66.656 16.4439 66.596 16.8519 66.596C17.0679 66.596 17.2839 66.62 17.4999 66.668C17.7159 66.692 17.9319 66.728 18.1479 66.776C18.3879 66.848 18.6879 66.896 19.0479 66.92C19.4319 66.944 19.8639 66.956 20.3439 66.956C21.3039 66.956 22.3959 66.908 23.6199 66.812C24.8439 66.692 26.0799 66.524 27.3279 66.308C28.5999 66.092 29.7759 65.852 30.8559 65.588C31.9359 65.3 32.7999 64.988 33.4479 64.652C34.1199 64.316 34.4559 63.956 34.4559 63.572C34.4559 63.404 34.3599 63.224 34.1679 63.032C33.7839 62.648 33.3039 62.324 32.7279 62.06C32.1759 61.796 31.4799 61.508 30.6399 61.196C29.8239 60.86 28.8159 60.44 27.6159 59.936C26.4399 59.408 25.0359 58.712 23.4039 57.848C22.3959 57.296 21.5199 56.732 20.7759 56.156C20.0319 55.58 19.6599 54.932 19.6599 54.212C19.6599 53.828 19.7799 53.432 20.0199 53.024C20.2839 52.592 20.7039 52.136 21.2799 51.656C22.6479 50.504 24.1599 49.592 25.8159 48.92C27.4719 48.248 29.1519 47.768 30.8559 47.48C32.5599 47.192 34.1559 47.048 35.6439 47.048C37.3479 47.048 38.8119 47.192 40.0359 47.48C41.2839 47.744 42.0759 48.08 42.4119 48.488C42.6519 48.752 42.7719 49.172 42.7719 49.748C42.7719 50.324 42.6639 50.948 42.4479 51.62C42.2319 52.268 41.9679 52.832 41.6559 53.312C41.3679 53.792 41.0919 54.044 40.8279 54.068C40.2279 54.092 39.8439 53.936 39.6759 53.6C39.5079 53.24 39.4239 52.796 39.4239 52.268C39.4239 51.98 39.4359 51.68 39.4599 51.368C39.4839 51.056 39.4959 50.756 39.4959 50.468C39.4959 49.988 39.4359 49.568 39.3159 49.208C39.2199 48.848 38.9799 48.584 38.5959 48.416C37.9239 48.128 37.0599 47.984 36.0039 47.984C34.8519 47.984 33.6159 48.152 32.2959 48.488C30.9999 48.824 29.8359 49.304 28.8039 49.928C28.3719 50.192 27.8799 50.576 27.3279 51.08C26.7999 51.56 26.3319 52.124 25.9239 52.772C25.5159 53.396 25.3119 54.068 25.3119 54.788C25.3119 55.412 25.5159 56.06 25.9239 56.732C26.3559 57.404 27.0879 58.064 28.1199 58.712C28.9839 59.24 29.9079 59.72 30.8919 60.152C31.8999 60.584 32.8599 60.992 33.7719 61.376C34.7079 61.736 35.5119 62.084 36.1839 62.42C36.8559 62.756 37.2999 63.104 37.5159 63.464C37.8279 63.944 37.9839 64.412 37.9839 64.868C37.9839 65.516 37.6719 66.068 37.0479 66.524C36.4239 66.98 35.5839 67.364 34.5279 67.676C33.4959 67.964 32.3319 68.18 31.0359 68.324C29.7639 68.492 28.4679 68.612 27.1479 68.684C25.8519 68.756 24.6279 68.792 23.4759 68.792ZM64.3359 69.44C64.0239 69.44 63.5079 69.32 62.7879 69.08C62.0679 68.864 61.2999 68.564 60.4839 68.18C59.6679 67.82 58.9479 67.436 58.3239 67.028C57.8199 66.692 57.2199 66.272 56.5239 65.768C55.8279 65.24 55.1319 64.712 54.4359 64.184C53.7639 63.632 53.1759 63.152 52.6719 62.744C52.1679 62.312 51.8559 62.036 51.7359 61.916C51.5679 61.748 51.4839 61.532 51.4839 61.268C51.4839 61.076 51.5199 60.884 51.5919 60.692C51.6879 60.476 51.7839 60.272 51.8799 60.08C51.8079 60.08 51.7359 60.068 51.6639 60.044C51.5919 59.996 51.5559 59.972 51.5559 59.972C51.1239 59.828 50.9079 59.696 50.9079 59.576C50.9079 59.312 51.5799 59.18 52.9239 59.18H53.6439C53.7639 59.18 53.8959 59.18 54.0399 59.18C54.1839 59.156 54.3279 59.144 54.4719 59.144C56.2479 59.144 57.8199 58.868 59.1879 58.316C60.5799 57.764 61.7079 57.092 62.5719 56.3C63.4359 55.508 63.9759 54.764 64.1919 54.068C64.2639 53.804 64.2999 53.576 64.2999 53.384C64.2999 52.544 63.8559 51.86 62.9679 51.332C62.1039 50.804 60.9759 50.408 59.5839 50.144C58.1919 49.88 56.7279 49.748 55.1919 49.748C53.8239 49.748 52.4799 49.844 51.1599 50.036C49.8399 50.228 48.6879 50.528 47.7039 50.936C47.3919 51.056 47.1039 51.116 46.8399 51.116C46.4559 51.116 46.2639 51.032 46.2639 50.864C46.2639 50.648 46.6119 50.36 47.3079 50C48.6999 49.304 50.1279 48.812 51.5919 48.524C53.0799 48.212 54.5439 48.056 55.9839 48.056C57.5679 48.056 59.0679 48.212 60.4839 48.524C61.8999 48.836 63.1599 49.268 64.2639 49.82C65.3679 50.348 66.2319 50.948 66.8559 51.62C67.4799 52.268 67.7919 52.94 67.7919 53.636C67.7919 54.02 67.6839 54.416 67.4679 54.824C67.2279 55.256 66.7599 55.712 66.0639 56.192C65.3919 56.672 64.5879 57.152 63.6519 57.632C62.7159 58.088 61.6959 58.508 60.5919 58.892C59.5119 59.252 58.4319 59.528 57.3519 59.72C56.9199 59.792 56.4639 59.864 55.9839 59.936C55.5279 60.008 55.0719 60.044 54.6159 60.044C54.8319 60.332 55.2159 60.824 55.7679 61.52C56.3199 62.216 57.0159 62.996 57.8559 63.86C58.6959 64.724 59.6439 65.588 60.6999 66.452C60.9879 66.668 61.3719 66.944 61.8519 67.28C62.3559 67.616 62.8479 67.952 63.3279 68.288C63.8079 68.624 64.1559 68.9 64.3719 69.116C64.6119 69.332 64.5999 69.44 64.3359 69.44ZM44.5719 71.132C44.3799 71.132 44.1519 70.964 43.8879 70.628C43.6239 70.316 43.3959 69.692 43.2039 68.756C43.1799 68.612 43.1559 68.456 43.1319 68.288C43.1319 68.144 43.1319 67.988 43.1319 67.82C43.1319 67.004 43.2399 66.044 43.4559 64.94C43.6959 63.812 44.0079 62.636 44.3919 61.412C44.7759 60.164 45.1959 58.94 45.6519 57.74C46.1079 56.54 46.5759 55.436 47.0559 54.428C47.5359 53.42 47.9799 52.604 48.3879 51.98C48.7239 51.428 49.2039 51.056 49.8279 50.864C50.4759 50.648 51.0879 50.54 51.6639 50.54C52.2159 50.54 52.6719 50.612 53.0319 50.756C53.3919 50.9 53.4879 51.068 53.3199 51.26C52.5279 52.244 51.7119 53.42 50.8719 54.788C50.0319 56.132 49.2399 57.572 48.4959 59.108C47.7519 60.62 47.0919 62.12 46.5159 63.608C45.9399 65.096 45.5079 66.464 45.2199 67.712C44.9319 68.96 44.8359 69.992 44.9319 70.808C44.9319 71.024 44.8119 71.132 44.5719 71.132ZM72.8004 69.656C72.6324 69.656 72.4404 69.536 72.2244 69.296C72.0324 69.08 71.8524 68.672 71.6844 68.072C70.6764 68.144 69.8364 68.18 69.1644 68.18C68.9484 68.18 68.7564 68.168 68.5884 68.144C68.4444 68.144 68.3364 68.132 68.2644 68.108C68.1684 68.084 68.0124 68.036 67.7964 67.964C67.6044 67.892 67.4244 67.796 67.2564 67.676C67.1124 67.556 67.0644 67.436 67.1124 67.316C67.3044 67.028 67.5324 66.764 67.7964 66.524C68.0844 66.284 68.6484 66.164 69.4884 66.164C69.8244 66.164 70.0524 66.176 70.1724 66.2C70.3164 66.224 70.3884 66.26 70.3884 66.308C70.3884 66.38 70.2924 66.452 70.1004 66.524C69.9084 66.596 69.8124 66.656 69.8124 66.704C69.8124 66.728 69.9204 66.74 70.1364 66.74C70.2564 66.74 70.4244 66.74 70.6404 66.74C70.8564 66.716 71.0964 66.692 71.3604 66.668C71.3604 66.572 71.3484 66.476 71.3244 66.38C71.3244 66.26 71.3244 66.152 71.3244 66.056C71.3244 65.024 71.4684 63.776 71.7564 62.312C72.0684 60.848 72.4644 59.324 72.9444 57.74C73.4484 56.132 73.9764 54.608 74.5284 53.168C75.1044 51.728 75.6444 50.504 76.1484 49.496C75.1164 49.664 74.1564 49.82 73.2684 49.964C72.3804 50.108 71.6604 50.228 71.1084 50.324C70.5564 50.396 70.2444 50.42 70.1724 50.396C69.9084 50.252 69.7764 49.94 69.7764 49.46C69.7764 48.98 69.9084 48.5 70.1724 48.02C70.4604 47.54 70.8084 47.3 71.2164 47.3C71.5284 47.3 71.7804 47.42 71.9724 47.66C72.1644 47.9 72.4764 48.02 72.9084 48.02C72.9564 48.02 73.0164 48.02 73.0884 48.02C73.1604 47.996 73.2444 47.972 73.3404 47.948C73.6044 47.876 74.1204 47.816 74.8884 47.768C75.6804 47.696 76.5804 47.648 77.5884 47.624C77.9484 47.384 78.3324 47.228 78.7404 47.156C79.1484 47.06 79.5444 47.012 79.9284 47.012C80.3364 47.012 80.6844 47.06 80.9724 47.156C81.2844 47.228 81.4884 47.336 81.5844 47.48C81.9924 47.48 82.3644 47.48 82.7004 47.48C83.0604 47.456 83.3964 47.444 83.7084 47.444C84.2604 47.444 84.7164 47.456 85.0764 47.48C85.4364 47.48 85.6524 47.504 85.7244 47.552C85.9164 47.624 86.0484 47.708 86.1204 47.804C86.1924 47.9 86.2284 47.984 86.2284 48.056C86.2284 48.248 86.1204 48.404 85.9044 48.524C85.6884 48.62 85.5564 48.62 85.5084 48.524C85.5084 48.404 85.2564 48.344 84.7524 48.344C84.3444 48.344 83.8044 48.38 83.1324 48.452C82.4604 48.524 81.7044 48.62 80.8644 48.74C80.0724 49.916 79.2684 51.272 78.4524 52.808C77.6604 54.32 76.9164 55.904 76.2204 57.56C75.5244 59.192 74.9124 60.788 74.3844 62.348C73.8804 63.908 73.5204 65.324 73.3044 66.596C74.2164 66.548 75.1644 66.512 76.1484 66.488C77.1564 66.464 78.0684 66.452 78.8844 66.452C79.6284 66.452 80.2164 66.476 80.6484 66.524C81.1044 66.548 81.2724 66.608 81.1524 66.704C80.6724 67.112 80.1804 67.4 79.6764 67.568C79.1964 67.712 78.5724 67.796 77.8044 67.82C77.0364 67.844 75.9804 67.88 74.6364 67.928C74.3964 67.928 74.1444 67.94 73.8804 67.964C73.6404 67.964 73.4004 67.976 73.1604 68C73.1364 68.456 73.1364 68.9 73.1604 69.332C73.1604 69.548 73.0404 69.656 72.8004 69.656ZM88.6871 68.396C87.7751 68.348 87.0431 67.796 86.4911 66.74C85.9391 65.66 85.6631 64.316 85.6631 62.708C85.6631 61.076 85.9751 59.264 86.5991 57.272C87.2471 55.256 88.3031 53.288 89.7671 51.368C89.8871 51.224 90.0911 50.972 90.3791 50.612C90.6911 50.252 91.0151 49.892 91.3511 49.532C91.7111 49.172 91.9871 48.92 92.1791 48.776L92.5391 48.524C92.5391 48.524 92.4551 48.596 92.2871 48.74C92.1431 48.86 92.1191 48.884 92.2151 48.812C92.4311 48.644 92.8271 48.488 93.4031 48.344C93.9791 48.176 94.5911 48.044 95.2391 47.948C95.8871 47.828 96.4271 47.768 96.8591 47.768C97.4351 47.768 97.6751 47.876 97.5791 48.092C97.5551 48.26 97.3511 48.524 96.9671 48.884C96.6071 49.244 95.8991 49.916 94.8431 50.9C93.9071 51.788 93.0911 52.82 92.3951 53.996C91.6991 55.172 91.1231 56.408 90.6671 57.704C90.2111 58.976 89.8751 60.212 89.6591 61.412C89.4431 62.588 89.3351 63.632 89.3351 64.544C89.3351 65.288 89.4071 65.888 89.5511 66.344C89.6951 66.776 89.9111 67.004 90.1991 67.028C91.0871 67.1 92.2391 66.764 93.6551 66.02C95.0951 65.276 96.7271 64.16 98.5511 62.672C100.375 61.184 102.307 59.384 104.347 57.272C105.427 56.168 106.243 55.148 106.795 54.212C107.347 53.252 107.707 52.4 107.875 51.656C108.067 50.912 108.163 50.276 108.163 49.748C108.163 49.532 108.151 49.34 108.127 49.172C108.127 49.004 108.115 48.848 108.091 48.704C108.043 48.344 107.935 47.984 107.767 47.624C107.599 47.264 107.443 46.964 107.299 46.724C107.155 46.484 107.083 46.364 107.083 46.364C107.275 46.172 107.587 46.076 108.019 46.076C108.355 46.076 108.691 46.124 109.027 46.22C109.387 46.292 109.603 46.328 109.675 46.328C109.987 46.4 110.287 46.652 110.575 47.084C110.887 47.492 111.043 48.08 111.043 48.848C111.043 49.832 110.647 51.104 109.855 52.664C109.087 54.224 107.635 56.072 105.499 58.208C104.587 59.12 103.543 60.068 102.367 61.052C101.215 62.012 100.003 62.936 98.7311 63.824C97.4831 64.712 96.2351 65.516 94.9871 66.236C93.7631 66.932 92.5991 67.484 91.4951 67.892C90.4151 68.276 89.4791 68.444 88.6871 68.396ZM110.215 69.8C110.047 69.8 109.891 69.728 109.747 69.584C109.579 69.44 109.495 69.236 109.495 68.972C109.495 68.78 109.555 68.54 109.675 68.252C109.795 67.964 110.011 67.652 110.323 67.316C110.875 66.092 111.391 65.096 111.871 64.328C112.375 63.56 112.939 62.732 113.563 61.844C113.251 61.796 113.023 61.688 112.879 61.52C112.735 61.328 112.663 61.112 112.663 60.872C112.663 60.488 112.771 60.128 112.987 59.792C113.227 59.432 113.443 59.252 113.635 59.252C113.923 59.252 114.223 59.216 114.535 59.144C114.871 59.072 115.207 59.036 115.543 59.036C116.407 57.788 117.103 56.756 117.631 55.94C118.183 55.124 118.627 54.464 118.963 53.96C119.299 53.456 119.587 53.036 119.827 52.7C120.091 52.364 120.355 52.052 120.619 51.764C120.883 51.452 121.207 51.092 121.591 50.684C121.975 50.276 122.479 49.76 123.103 49.136C122.791 48.488 122.635 47.852 122.635 47.228C122.635 46.364 122.887 45.656 123.391 45.104C123.895 44.552 124.423 44.276 124.975 44.276C125.263 44.276 125.527 44.36 125.767 44.528C126.031 44.672 126.247 44.936 126.415 45.32C127.087 46.856 127.555 48.812 127.819 51.188C128.107 53.564 128.299 56.084 128.395 58.748C130.195 58.892 131.443 59.216 132.139 59.72C131.827 59.816 131.347 59.924 130.699 60.044C130.051 60.14 129.283 60.248 128.395 60.368C128.395 61.328 128.407 62.3 128.431 63.284C128.455 64.268 128.467 65.24 128.467 66.2C128.467 67.544 128.359 68.48 128.143 69.008C127.951 69.536 127.759 69.8 127.567 69.8C127.303 69.8 127.171 69.56 127.171 69.08C127.171 67.472 127.099 65.972 126.955 64.58C126.811 63.164 126.607 61.844 126.343 60.62C125.167 60.74 123.919 60.872 122.599 61.016C121.303 61.136 120.007 61.256 118.711 61.376C117.415 61.496 116.215 61.616 115.111 61.736C114.343 62.936 113.575 64.196 112.807 65.516C112.063 66.836 111.343 68.18 110.647 69.548C110.575 69.716 110.431 69.8 110.215 69.8ZM117.055 58.892C118.471 58.772 119.959 58.7 121.519 58.676C123.079 58.628 124.555 58.604 125.947 58.604C125.539 56.9 125.095 55.4 124.615 54.104C124.159 52.784 123.799 51.656 123.535 50.72C122.911 51.344 122.011 52.364 120.835 53.78C119.683 55.196 118.423 56.9 117.055 58.892ZM139.632 68.792C138.432 68.792 137.4 68.768 136.536 68.72C135.672 68.672 135.12 68.624 134.88 68.576C133.632 68.312 132.744 68.06 132.216 67.82C131.712 67.556 131.46 67.34 131.46 67.172C131.46 67.004 131.616 66.872 131.928 66.776C132.24 66.656 132.6 66.596 133.008 66.596C133.224 66.596 133.44 66.62 133.656 66.668C133.872 66.692 134.088 66.728 134.304 66.776C134.544 66.848 134.844 66.896 135.204 66.92C135.588 66.944 136.02 66.956 136.5 66.956C137.46 66.956 138.552 66.908 139.776 66.812C141 66.692 142.236 66.524 143.484 66.308C144.756 66.092 145.932 65.852 147.012 65.588C148.092 65.3 148.956 64.988 149.604 64.652C150.276 64.316 150.612 63.956 150.612 63.572C150.612 63.404 150.516 63.224 150.324 63.032C149.94 62.648 149.46 62.324 148.884 62.06C148.332 61.796 147.636 61.508 146.796 61.196C145.98 60.86 144.972 60.44 143.772 59.936C142.596 59.408 141.192 58.712 139.56 57.848C138.552 57.296 137.676 56.732 136.932 56.156C136.188 55.58 135.816 54.932 135.816 54.212C135.816 53.828 135.936 53.432 136.176 53.024C136.44 52.592 136.86 52.136 137.436 51.656C138.804 50.504 140.316 49.592 141.972 48.92C143.628 48.248 145.308 47.768 147.012 47.48C148.716 47.192 150.312 47.048 151.8 47.048C153.504 47.048 154.968 47.192 156.192 47.48C157.44 47.744 158.232 48.08 158.568 48.488C158.808 48.752 158.928 49.172 158.928 49.748C158.928 50.324 158.82 50.948 158.604 51.62C158.388 52.268 158.124 52.832 157.812 53.312C157.524 53.792 157.248 54.044 156.984 54.068C156.384 54.092 156 53.936 155.832 53.6C155.664 53.24 155.58 52.796 155.58 52.268C155.58 51.98 155.592 51.68 155.616 51.368C155.64 51.056 155.652 50.756 155.652 50.468C155.652 49.988 155.592 49.568 155.472 49.208C155.376 48.848 155.136 48.584 154.752 48.416C154.08 48.128 153.216 47.984 152.16 47.984C151.008 47.984 149.772 48.152 148.452 48.488C147.156 48.824 145.992 49.304 144.96 49.928C144.528 50.192 144.036 50.576 143.484 51.08C142.956 51.56 142.488 52.124 142.08 52.772C141.672 53.396 141.468 54.068 141.468 54.788C141.468 55.412 141.672 56.06 142.08 56.732C142.512 57.404 143.244 58.064 144.276 58.712C145.14 59.24 146.064 59.72 147.048 60.152C148.056 60.584 149.016 60.992 149.928 61.376C150.864 61.736 151.668 62.084 152.34 62.42C153.012 62.756 153.456 63.104 153.672 63.464C153.984 63.944 154.14 64.412 154.14 64.868C154.14 65.516 153.828 66.068 153.204 66.524C152.58 66.98 151.74 67.364 150.684 67.676C149.652 67.964 148.488 68.18 147.192 68.324C145.92 68.492 144.624 68.612 143.304 68.684C142.008 68.756 140.784 68.792 139.632 68.792ZM171.024 70.268C170.832 70.268 170.604 70.1 170.34 69.764C170.1 69.428 169.884 68.78 169.692 67.82C169.668 67.7 169.644 67.568 169.62 67.424C169.62 67.28 169.62 67.124 169.62 66.956C169.62 65.996 169.788 64.856 170.124 63.536C170.484 62.216 170.94 60.86 171.492 59.468C172.044 58.052 172.608 56.732 173.184 55.508C173.784 54.26 174.336 53.24 174.84 52.448C175.2 51.872 175.716 51.488 176.388 51.296C177.06 51.104 177.696 51.008 178.296 51.008C177.24 50.744 176.16 50.528 175.056 50.36C173.976 50.192 172.884 50.108 171.78 50.108C170.34 50.108 168.9 50.3 167.46 50.684C166.02 51.044 164.628 51.704 163.284 52.664C162.996 52.856 162.852 53.06 162.852 53.276C162.852 53.468 162.936 53.66 163.104 53.852C163.272 54.02 163.356 54.176 163.356 54.32C163.356 54.44 163.248 54.548 163.032 54.644C162.744 54.764 162.504 54.824 162.312 54.824C161.808 54.824 161.376 54.632 161.016 54.248C160.68 53.864 160.38 53.456 160.116 53.024C159.828 52.52 159.684 52.04 159.684 51.584C159.684 50.984 159.9 50.456 160.332 50C160.764 49.52 161.328 49.112 162.024 48.776C162.72 48.44 163.452 48.176 164.22 47.984C165.012 47.768 165.744 47.612 166.416 47.516C167.04 47.42 167.652 47.36 168.252 47.336C168.852 47.288 169.452 47.264 170.052 47.264C172.02 47.264 173.892 47.432 175.668 47.768C177.468 48.104 179.136 48.524 180.672 49.028C182.232 49.508 183.636 49.988 184.884 50.468C186.132 50.948 187.2 51.344 188.088 51.656C188.976 51.968 189.648 52.1 190.104 52.052C190.464 52.052 190.716 51.968 190.86 51.8C191.028 51.608 191.148 51.44 191.22 51.296C191.316 51.128 191.436 51.08 191.58 51.152C191.868 51.32 192.012 51.476 192.012 51.62C192.012 51.788 191.892 51.956 191.652 52.124C191.436 52.268 191.232 52.4 191.04 52.52C190.344 52.976 189.432 53.204 188.304 53.204C187.2 53.204 185.916 53.024 184.452 52.664C183.012 52.304 181.464 51.896 179.808 51.44L179.772 51.728C179.004 52.712 178.2 53.84 177.36 55.112C176.544 56.36 175.764 57.68 175.02 59.072C174.276 60.464 173.616 61.844 173.04 63.212C172.464 64.556 172.02 65.816 171.708 66.992C171.396 68.168 171.288 69.164 171.384 69.98C171.384 70.172 171.264 70.268 171.024 70.268ZM185.098 69.8C184.93 69.8 184.774 69.728 184.63 69.584C184.462 69.44 184.378 69.236 184.378 68.972C184.378 68.78 184.438 68.54 184.558 68.252C184.678 67.964 184.894 67.652 185.206 67.316C185.758 66.092 186.274 65.096 186.754 64.328C187.258 63.56 187.822 62.732 188.446 61.844C188.134 61.796 187.906 61.688 187.762 61.52C187.618 61.328 187.546 61.112 187.546 60.872C187.546 60.488 187.654 60.128 187.87 59.792C188.11 59.432 188.326 59.252 188.518 59.252C188.806 59.252 189.106 59.216 189.418 59.144C189.754 59.072 190.09 59.036 190.426 59.036C191.29 57.788 191.986 56.756 192.514 55.94C193.066 55.124 193.51 54.464 193.846 53.96C194.182 53.456 194.47 53.036 194.71 52.7C194.974 52.364 195.238 52.052 195.502 51.764C195.766 51.452 196.09 51.092 196.474 50.684C196.858 50.276 197.362 49.76 197.986 49.136C197.674 48.488 197.518 47.852 197.518 47.228C197.518 46.364 197.77 45.656 198.274 45.104C198.778 44.552 199.306 44.276 199.858 44.276C200.146 44.276 200.41 44.36 200.65 44.528C200.914 44.672 201.13 44.936 201.298 45.32C201.97 46.856 202.438 48.812 202.702 51.188C202.99 53.564 203.182 56.084 203.278 58.748C205.078 58.892 206.326 59.216 207.022 59.72C206.71 59.816 206.23 59.924 205.582 60.044C204.934 60.14 204.166 60.248 203.278 60.368C203.278 61.328 203.29 62.3 203.314 63.284C203.338 64.268 203.35 65.24 203.35 66.2C203.35 67.544 203.242 68.48 203.026 69.008C202.834 69.536 202.642 69.8 202.45 69.8C202.186 69.8 202.054 69.56 202.054 69.08C202.054 67.472 201.982 65.972 201.838 64.58C201.694 63.164 201.49 61.844 201.226 60.62C200.05 60.74 198.802 60.872 197.482 61.016C196.186 61.136 194.89 61.256 193.594 61.376C192.298 61.496 191.098 61.616 189.994 61.736C189.226 62.936 188.458 64.196 187.69 65.516C186.946 66.836 186.226 68.18 185.53 69.548C185.458 69.716 185.314 69.8 185.098 69.8ZM191.938 58.892C193.354 58.772 194.842 58.7 196.402 58.676C197.962 58.628 199.438 58.604 200.83 58.604C200.422 56.9 199.978 55.4 199.498 54.104C199.042 52.784 198.682 51.656 198.418 50.72C197.794 51.344 196.894 52.364 195.718 53.78C194.566 55.196 193.306 56.9 191.938 58.892ZM212.859 68.396C211.947 68.348 211.215 67.796 210.663 66.74C210.111 65.66 209.835 64.316 209.835 62.708C209.835 61.076 210.147 59.264 210.771 57.272C211.419 55.256 212.475 53.288 213.939 51.368C214.059 51.224 214.263 50.972 214.551 50.612C214.863 50.252 215.187 49.892 215.523 49.532C215.883 49.172 216.159 48.92 216.351 48.776L216.711 48.524C216.711 48.524 216.627 48.596 216.459 48.74C216.315 48.86 216.291 48.884 216.387 48.812C216.603 48.644 216.999 48.488 217.575 48.344C218.151 48.176 218.763 48.044 219.411 47.948C220.059 47.828 220.599 47.768 221.031 47.768C221.607 47.768 221.847 47.876 221.751 48.092C221.727 48.26 221.523 48.524 221.139 48.884C220.779 49.244 220.071 49.916 219.015 50.9C218.079 51.788 217.263 52.82 216.567 53.996C215.871 55.172 215.295 56.408 214.839 57.704C214.383 58.976 214.047 60.212 213.831 61.412C213.615 62.588 213.507 63.632 213.507 64.544C213.507 65.288 213.579 65.888 213.723 66.344C213.867 66.776 214.083 67.004 214.371 67.028C215.259 67.1 216.411 66.764 217.827 66.02C219.267 65.276 220.899 64.16 222.723 62.672C224.547 61.184 226.479 59.384 228.519 57.272C229.599 56.168 230.415 55.148 230.967 54.212C231.519 53.252 231.879 52.4 232.047 51.656C232.239 50.912 232.335 50.276 232.335 49.748C232.335 49.532 232.323 49.34 232.299 49.172C232.299 49.004 232.287 48.848 232.263 48.704C232.215 48.344 232.107 47.984 231.939 47.624C231.771 47.264 231.615 46.964 231.471 46.724C231.327 46.484 231.255 46.364 231.255 46.364C231.447 46.172 231.759 46.076 232.191 46.076C232.527 46.076 232.863 46.124 233.199 46.22C233.559 46.292 233.775 46.328 233.847 46.328C234.159 46.4 234.459 46.652 234.747 47.084C235.059 47.492 235.215 48.08 235.215 48.848C235.215 49.832 234.819 51.104 234.027 52.664C233.259 54.224 231.807 56.072 229.671 58.208C228.759 59.12 227.715 60.068 226.539 61.052C225.387 62.012 224.175 62.936 222.903 63.824C221.655 64.712 220.407 65.516 219.159 66.236C217.935 66.932 216.771 67.484 215.667 67.892C214.587 68.276 213.651 68.444 212.859 68.396ZM234.387 69.8C234.219 69.8 234.063 69.728 233.919 69.584C233.751 69.44 233.667 69.236 233.667 68.972C233.667 68.78 233.727 68.54 233.847 68.252C233.967 67.964 234.183 67.652 234.495 67.316C235.047 66.092 235.563 65.096 236.043 64.328C236.547 63.56 237.111 62.732 237.735 61.844C237.423 61.796 237.195 61.688 237.051 61.52C236.907 61.328 236.835 61.112 236.835 60.872C236.835 60.488 236.943 60.128 237.159 59.792C237.399 59.432 237.615 59.252 237.807 59.252C238.095 59.252 238.395 59.216 238.707 59.144C239.043 59.072 239.379 59.036 239.715 59.036C240.579 57.788 241.275 56.756 241.803 55.94C242.355 55.124 242.799 54.464 243.135 53.96C243.471 53.456 243.759 53.036 243.999 52.7C244.263 52.364 244.527 52.052 244.791 51.764C245.055 51.452 245.379 51.092 245.763 50.684C246.147 50.276 246.651 49.76 247.275 49.136C246.963 48.488 246.807 47.852 246.807 47.228C246.807 46.364 247.059 45.656 247.563 45.104C248.067 44.552 248.595 44.276 249.147 44.276C249.435 44.276 249.699 44.36 249.939 44.528C250.203 44.672 250.419 44.936 250.587 45.32C251.259 46.856 251.727 48.812 251.991 51.188C252.279 53.564 252.471 56.084 252.567 58.748C254.367 58.892 255.615 59.216 256.311 59.72C255.999 59.816 255.519 59.924 254.871 60.044C254.223 60.14 253.455 60.248 252.567 60.368C252.567 61.328 252.579 62.3 252.603 63.284C252.627 64.268 252.639 65.24 252.639 66.2C252.639 67.544 252.531 68.48 252.315 69.008C252.123 69.536 251.931 69.8 251.739 69.8C251.475 69.8 251.343 69.56 251.343 69.08C251.343 67.472 251.271 65.972 251.127 64.58C250.983 63.164 250.779 61.844 250.515 60.62C249.339 60.74 248.091 60.872 246.771 61.016C245.475 61.136 244.179 61.256 242.883 61.376C241.587 61.496 240.387 61.616 239.283 61.736C238.515 62.936 237.747 64.196 236.979 65.516C236.235 66.836 235.515 68.18 234.819 69.548C234.747 69.716 234.603 69.8 234.387 69.8ZM241.227 58.892C242.643 58.772 244.131 58.7 245.691 58.676C247.251 58.628 248.727 58.604 250.119 58.604C249.711 56.9 249.267 55.4 248.787 54.104C248.331 52.784 247.971 51.656 247.707 50.72C247.083 51.344 246.183 52.364 245.007 53.78C243.855 55.196 242.595 56.9 241.227 58.892Z" fill="white"/>
<defs>
<linearGradient id="paint0_linear_1_2" x1="135" y1="-8" x2="135" y2="213" gradientUnits="userSpaceOnUse">
<stop stop-color="#FF0004"/>
<stop offset="0.105" stop-color="#910099"/>
<stop offset="0.25" stop-color="#910099"/>
</linearGradient>
</defs>
</svg>
